<svg xmlns="http://www.w3.org/2000/svg" width="340" height="181" viewBox="0 0 340 181" fill="none"><path opacity="0.4" d="M185.017 177.809C184.298 177.809 183.668 177.683 183.127 177.431C182.586 177.169 182.166 176.805 181.867 176.339C181.568 175.872 181.419 175.326 181.419 174.701H182.889C182.898 175.055 182.982 175.382 183.141 175.681C183.309 175.97 183.547 176.203 183.855 176.381C184.172 176.549 184.56 176.633 185.017 176.633C185.409 176.633 185.745 176.567 186.025 176.437C186.314 176.306 186.534 176.129 186.683 175.905C186.832 175.671 186.907 175.405 186.907 175.107C186.907 174.761 186.828 174.477 186.669 174.253C186.51 174.029 186.296 173.847 186.025 173.707C185.764 173.557 185.456 173.427 185.101 173.315C184.756 173.203 184.392 173.081 184.009 172.951C183.234 172.699 182.656 172.372 182.273 171.971C181.9 171.569 181.713 171.047 181.713 170.403C181.713 169.852 181.844 169.376 182.105 168.975C182.366 168.564 182.73 168.247 183.197 168.023C183.673 167.789 184.233 167.673 184.877 167.673C185.512 167.673 186.067 167.789 186.543 168.023C187.019 168.256 187.392 168.578 187.663 168.989C187.934 169.399 188.069 169.88 188.069 170.431H186.585C186.585 170.179 186.52 169.931 186.389 169.689C186.258 169.446 186.062 169.25 185.801 169.101C185.54 168.942 185.218 168.863 184.835 168.863C184.518 168.853 184.233 168.905 183.981 169.017C183.729 169.129 183.533 169.292 183.393 169.507C183.253 169.721 183.183 169.978 183.183 170.277C183.183 170.575 183.244 170.818 183.365 171.005C183.496 171.182 183.682 171.336 183.925 171.467C184.168 171.597 184.448 171.719 184.765 171.831C185.092 171.933 185.451 172.05 185.843 172.181C186.328 172.339 186.758 172.535 187.131 172.769C187.514 172.993 187.812 173.287 188.027 173.651C188.251 174.005 188.363 174.463 188.363 175.023C188.363 175.508 188.237 175.961 187.985 176.381C187.733 176.801 187.36 177.146 186.865 177.417C186.37 177.678 185.754 177.809 185.017 177.809ZM193.15 177.809C192.478 177.809 191.881 177.655 191.358 177.347C190.835 177.039 190.425 176.609 190.126 176.059C189.837 175.508 189.692 174.869 189.692 174.141C189.692 173.394 189.837 172.745 190.126 172.195C190.425 171.635 190.835 171.201 191.358 170.893C191.881 170.575 192.487 170.417 193.178 170.417C193.869 170.417 194.461 170.571 194.956 170.879C195.451 171.187 195.833 171.597 196.104 172.111C196.375 172.615 196.51 173.175 196.51 173.791C196.51 173.884 196.505 173.987 196.496 174.099C196.496 174.201 196.491 174.318 196.482 174.449H190.714V173.455H195.11C195.082 172.867 194.886 172.409 194.522 172.083C194.158 171.747 193.705 171.579 193.164 171.579C192.781 171.579 192.431 171.667 192.114 171.845C191.797 172.013 191.54 172.265 191.344 172.601C191.157 172.927 191.064 173.343 191.064 173.847V174.239C191.064 174.761 191.157 175.205 191.344 175.569C191.54 175.923 191.797 176.194 192.114 176.381C192.431 176.558 192.777 176.647 193.15 176.647C193.598 176.647 193.967 176.549 194.256 176.353C194.545 176.157 194.76 175.891 194.9 175.555H196.3C196.179 175.984 195.973 176.371 195.684 176.717C195.395 177.053 195.035 177.319 194.606 177.515C194.186 177.711 193.701 177.809 193.15 177.809ZM198.065 180.721V170.585H199.325L199.465 171.677C199.615 171.462 199.801 171.261 200.025 171.075C200.249 170.879 200.515 170.72 200.823 170.599C201.141 170.477 201.509 170.417 201.929 170.417C202.601 170.417 203.189 170.58 203.693 170.907C204.207 171.233 204.603 171.677 204.883 172.237C205.173 172.787 205.317 173.417 205.317 174.127C205.317 174.836 205.173 175.471 204.883 176.031C204.594 176.581 204.193 177.015 203.679 177.333C203.175 177.65 202.587 177.809 201.915 177.809C201.365 177.809 200.879 177.701 200.459 177.487C200.039 177.263 199.708 176.955 199.465 176.563V180.721H198.065ZM201.691 176.591C202.121 176.591 202.499 176.488 202.825 176.283C203.161 176.077 203.423 175.788 203.609 175.415C203.805 175.041 203.903 174.607 203.903 174.113C203.903 173.618 203.805 173.189 203.609 172.825C203.423 172.451 203.161 172.162 202.825 171.957C202.499 171.742 202.121 171.635 201.691 171.635C201.253 171.635 200.865 171.742 200.529 171.957C200.203 172.162 199.946 172.451 199.759 172.825C199.573 173.189 199.479 173.618 199.479 174.113C199.479 174.607 199.573 175.041 199.759 175.415C199.946 175.788 200.203 176.077 200.529 176.283C200.865 176.488 201.253 176.591 201.691 176.591Z" fill="#0D0D0D"></path><path opacity="0.4" d="M117.839 177.641L121.437 167.841H122.963L126.561 177.641H125.063L122.193 169.521L119.309 177.641H117.839ZM119.463 175.219L119.855 174.099H124.461L124.853 175.219H119.463ZM130.341 177.809C129.79 177.809 129.309 177.697 128.899 177.473C128.497 177.249 128.185 176.913 127.961 176.465C127.746 176.017 127.639 175.452 127.639 174.771V170.585H129.039V174.617C129.039 175.279 129.183 175.779 129.473 176.115C129.762 176.451 130.177 176.619 130.719 176.619C131.083 176.619 131.409 176.53 131.699 176.353C131.997 176.175 132.231 175.919 132.399 175.583C132.567 175.247 132.651 174.836 132.651 174.351V170.585H134.051V177.641H132.805L132.707 176.437C132.492 176.866 132.179 177.202 131.769 177.445C131.358 177.687 130.882 177.809 130.341 177.809ZM138.838 180.889C138.194 180.889 137.624 180.805 137.13 180.637C136.635 180.478 136.252 180.231 135.982 179.895C135.711 179.559 135.576 179.148 135.576 178.663C135.576 178.411 135.632 178.154 135.744 177.893C135.856 177.641 136.038 177.398 136.29 177.165C136.542 176.931 136.882 176.721 137.312 176.535L138.096 177.165C137.62 177.342 137.298 177.552 137.13 177.795C136.971 178.047 136.892 178.289 136.892 178.523C136.892 178.803 136.976 179.036 137.144 179.223C137.312 179.409 137.54 179.549 137.83 179.643C138.128 179.736 138.464 179.783 138.838 179.783C139.202 179.783 139.519 179.731 139.79 179.629C140.06 179.526 140.27 179.381 140.42 179.195C140.569 179.008 140.644 178.789 140.644 178.537C140.644 178.238 140.532 177.986 140.308 177.781C140.084 177.585 139.654 177.468 139.02 177.431C138.488 177.393 138.035 177.342 137.662 177.277C137.298 177.211 136.985 177.132 136.724 177.039C136.472 176.945 136.257 176.843 136.08 176.731C135.912 176.619 135.767 176.502 135.646 176.381V176.059L137.046 174.617L138.18 175.009L136.654 176.423L136.948 175.793C137.05 175.858 137.148 175.923 137.242 175.989C137.335 176.045 137.461 176.096 137.62 176.143C137.778 176.189 137.993 176.231 138.264 176.269C138.534 176.306 138.889 176.343 139.328 176.381C139.962 176.427 140.471 176.539 140.854 176.717C141.246 176.894 141.53 177.132 141.708 177.431C141.885 177.729 141.974 178.084 141.974 178.495C141.974 178.896 141.862 179.279 141.638 179.643C141.423 180.007 141.082 180.305 140.616 180.539C140.158 180.772 139.566 180.889 138.838 180.889ZM138.838 175.471C138.24 175.471 137.732 175.359 137.312 175.135C136.901 174.911 136.584 174.607 136.36 174.225C136.145 173.842 136.038 173.417 136.038 172.951C136.038 172.475 136.145 172.05 136.36 171.677C136.584 171.294 136.906 170.991 137.326 170.767C137.746 170.533 138.25 170.417 138.838 170.417C139.426 170.417 139.925 170.533 140.336 170.767C140.756 170.991 141.073 171.294 141.288 171.677C141.512 172.05 141.624 172.475 141.624 172.951C141.624 173.417 141.512 173.842 141.288 174.225C141.073 174.607 140.756 174.911 140.336 175.135C139.925 175.359 139.426 175.471 138.838 175.471ZM138.838 174.351C139.295 174.351 139.659 174.234 139.93 174.001C140.2 173.758 140.336 173.408 140.336 172.951C140.336 172.493 140.2 172.148 139.93 171.915C139.659 171.672 139.295 171.551 138.838 171.551C138.38 171.551 138.012 171.672 137.732 171.915C137.452 172.148 137.312 172.493 137.312 172.951C137.312 173.408 137.452 173.758 137.732 174.001C138.012 174.234 138.38 174.351 138.838 174.351ZM139.986 171.691L139.65 170.585H142.548V171.551L139.986 171.691Z" fill="#0D0D0D"></path><path opacity="0.4" d="M61.6155 177.809C61.0089 177.809 60.4862 177.697 60.0475 177.473C59.6089 177.239 59.2682 176.903 59.0255 176.465C58.7829 176.026 58.6615 175.503 58.6615 174.897H60.0755C60.0755 175.214 60.1269 175.499 60.2295 175.751C60.3322 176.003 60.4909 176.203 60.7055 176.353C60.9295 176.493 61.2235 176.563 61.5875 176.563C61.9515 176.563 62.2362 176.493 62.4415 176.353C62.6562 176.213 62.8102 176.026 62.9035 175.793C62.9969 175.55 63.0435 175.275 63.0435 174.967V167.841H64.4435V174.967C64.4435 175.872 64.1915 176.572 63.6875 177.067C63.1835 177.561 62.4929 177.809 61.6155 177.809ZM69.0029 177.809C68.4523 177.809 67.9716 177.697 67.5609 177.473C67.1596 177.249 66.8469 176.913 66.6229 176.465C66.4083 176.017 66.3009 175.452 66.3009 174.771V170.585H67.7009V174.617C67.7009 175.279 67.8456 175.779 68.1349 176.115C68.4243 176.451 68.8396 176.619 69.3809 176.619C69.7449 176.619 70.0716 176.53 70.3609 176.353C70.6596 176.175 70.8929 175.919 71.0609 175.583C71.2289 175.247 71.3129 174.836 71.3129 174.351V170.585H72.7129V177.641H71.4669L71.3689 176.437C71.1543 176.866 70.8416 177.202 70.4309 177.445C70.0203 177.687 69.5443 177.809 69.0029 177.809ZM74.6297 177.641V167.561H76.0297V177.641H74.6297Z" fill="#0D0D0D"></path><path opacity="0.4" d="M249.864 177.809C248.921 177.809 248.09 177.599 247.372 177.179C246.662 176.749 246.102 176.157 245.692 175.401C245.29 174.635 245.09 173.749 245.09 172.741C245.09 171.742 245.29 170.865 245.692 170.109C246.102 169.343 246.662 168.746 247.372 168.317C248.09 167.887 248.921 167.673 249.864 167.673C250.825 167.673 251.665 167.887 252.384 168.317C253.102 168.746 253.658 169.343 254.05 170.109C254.451 170.865 254.652 171.742 254.652 172.741C254.652 173.749 254.451 174.635 254.05 175.401C253.658 176.157 253.102 176.749 252.384 177.179C251.665 177.599 250.825 177.809 249.864 177.809ZM249.878 176.563C250.55 176.563 251.138 176.409 251.642 176.101C252.146 175.793 252.533 175.354 252.804 174.785C253.084 174.215 253.224 173.534 253.224 172.741C253.224 171.947 253.084 171.266 252.804 170.697C252.533 170.127 252.146 169.693 251.642 169.395C251.138 169.087 250.55 168.933 249.878 168.933C249.206 168.933 248.618 169.087 248.114 169.395C247.61 169.693 247.218 170.127 246.938 170.697C246.658 171.266 246.518 171.947 246.518 172.741C246.518 173.534 246.658 174.215 246.938 174.785C247.218 175.354 247.61 175.793 248.114 176.101C248.618 176.409 249.206 176.563 249.878 176.563ZM259.528 177.809C258.847 177.809 258.24 177.655 257.708 177.347C257.176 177.029 256.756 176.595 256.448 176.045C256.15 175.494 256 174.855 256 174.127C256 173.389 256.15 172.745 256.448 172.195C256.756 171.635 257.176 171.201 257.708 170.893C258.24 170.575 258.847 170.417 259.528 170.417C260.387 170.417 261.106 170.641 261.684 171.089C262.263 171.537 262.632 172.143 262.79 172.909H261.334C261.241 172.498 261.026 172.181 260.69 171.957C260.364 171.733 259.972 171.621 259.514 171.621C259.141 171.621 258.796 171.719 258.478 171.915C258.161 172.101 257.904 172.381 257.708 172.755C257.522 173.119 257.428 173.571 257.428 174.113C257.428 174.514 257.484 174.873 257.596 175.191C257.708 175.499 257.858 175.76 258.044 175.975C258.24 176.189 258.464 176.353 258.716 176.465C258.968 176.567 259.234 176.619 259.514 176.619C259.822 176.619 260.098 176.572 260.34 176.479C260.592 176.376 260.802 176.227 260.97 176.031C261.148 175.835 261.269 175.601 261.334 175.331H262.79C262.632 176.077 262.263 176.679 261.684 177.137C261.106 177.585 260.387 177.809 259.528 177.809ZM267.176 177.641C266.738 177.641 266.355 177.571 266.028 177.431C265.702 177.291 265.45 177.057 265.272 176.731C265.095 176.404 265.006 175.961 265.006 175.401V171.775H263.788V170.585H265.006L265.174 168.821H266.406V170.585H268.408V171.775H266.406V175.415C266.406 175.816 266.49 176.091 266.658 176.241C266.826 176.381 267.116 176.451 267.526 176.451H268.338V177.641H267.176Z" fill="#0D0D0D"></path><path opacity="0.4" d="M307.592 177.641V167.841H308.992L313.99 175.359V167.841H315.39V177.641H313.99L308.992 170.137V177.641H307.592ZM320.586 177.809C319.923 177.809 319.326 177.655 318.794 177.347C318.271 177.039 317.856 176.609 317.548 176.059C317.249 175.499 317.1 174.855 317.1 174.127C317.1 173.38 317.254 172.731 317.562 172.181C317.87 171.621 318.29 171.187 318.822 170.879C319.354 170.571 319.951 170.417 320.614 170.417C321.286 170.417 321.883 170.571 322.406 170.879C322.929 171.187 323.339 171.616 323.638 172.167C323.946 172.717 324.1 173.366 324.1 174.113C324.1 174.859 323.946 175.508 323.638 176.059C323.339 176.609 322.924 177.039 322.392 177.347C321.86 177.655 321.258 177.809 320.586 177.809ZM320.586 176.605C320.969 176.605 321.314 176.511 321.622 176.325C321.939 176.138 322.191 175.863 322.378 175.499C322.574 175.125 322.672 174.663 322.672 174.113C322.672 173.562 322.579 173.105 322.392 172.741C322.205 172.367 321.953 172.087 321.636 171.901C321.328 171.714 320.987 171.621 320.614 171.621C320.241 171.621 319.895 171.714 319.578 171.901C319.261 172.087 319.004 172.367 318.808 172.741C318.621 173.105 318.528 173.562 318.528 174.113C318.528 174.663 318.621 175.125 318.808 175.499C319.004 175.863 319.256 176.138 319.564 176.325C319.881 176.511 320.222 176.605 320.586 176.605ZM327.407 177.641L324.761 170.585H326.231L328.233 176.297L330.249 170.585H331.691L329.059 177.641H327.407Z" fill="#0D0D0D"></path><path opacity="0.4" d="M5.62559 53.6406V51.9246H1.41359V50.9886L5.43359 45.2406H6.81359V50.8806H8.01359V51.9246H6.81359V53.6406H5.62559ZM2.72159 50.8806H5.69759V46.5606L2.72159 50.8806ZM12.5387 53.7846C11.7947 53.7846 11.1547 53.6046 10.6187 53.2446C10.0827 52.8766 9.67072 52.3686 9.38272 51.7206C9.09472 51.0646 8.95072 50.3046 8.95072 49.4406C8.95072 48.5766 9.09472 47.8206 9.38272 47.1726C9.67072 46.5166 10.0827 46.0086 10.6187 45.6486C11.1547 45.2806 11.7947 45.0966 12.5387 45.0966C13.2827 45.0966 13.9187 45.2806 14.4467 45.6486C14.9827 46.0086 15.3907 46.5166 15.6707 47.1726C15.9587 47.8206 16.1027 48.5766 16.1027 49.4406C16.1027 50.3046 15.9587 51.0646 15.6707 51.7206C15.3907 52.3686 14.9827 52.8766 14.4467 53.2446C13.9187 53.6046 13.2827 53.7846 12.5387 53.7846ZM12.5387 52.7166C12.9867 52.7166 13.3867 52.5846 13.7387 52.3206C14.0987 52.0566 14.3787 51.6806 14.5787 51.1926C14.7787 50.7046 14.8787 50.1206 14.8787 49.4406C14.8787 48.7606 14.7787 48.1766 14.5787 47.6886C14.3787 47.2006 14.0987 46.8286 13.7387 46.5726C13.3867 46.3086 12.9867 46.1766 12.5387 46.1766C12.0827 46.1766 11.6747 46.3086 11.3147 46.5726C10.9547 46.8286 10.6747 47.2006 10.4747 47.6886C10.2747 48.1766 10.1747 48.7606 10.1747 49.4406C10.1747 50.1206 10.2747 50.7046 10.4747 51.1926C10.6747 51.6806 10.9547 52.0566 11.3147 52.3206C11.6747 52.5846 12.0827 52.7166 12.5387 52.7166ZM21.2919 53.6406L18.5079 50.3286L21.0279 47.5926H22.4799L19.4799 50.7966V49.8966L22.8039 53.6406H21.2919ZM17.4879 53.6406V45.0006H18.6879V53.6406H17.4879Z" fill="#0D0D0D"></path><path opacity="0.4" d="M12.5387 147.785C11.7947 147.785 11.1547 147.605 10.6187 147.245C10.0827 146.877 9.67072 146.369 9.38272 145.721C9.09472 145.065 8.95072 144.305 8.95072 143.441C8.95072 142.577 9.09472 141.821 9.38272 141.173C9.67072 140.517 10.0827 140.009 10.6187 139.649C11.1547 139.281 11.7947 139.097 12.5387 139.097C13.2827 139.097 13.9187 139.281 14.4467 139.649C14.9827 140.009 15.3907 140.517 15.6707 141.173C15.9587 141.821 16.1027 142.577 16.1027 143.441C16.1027 144.305 15.9587 145.065 15.6707 145.721C15.3907 146.369 14.9827 146.877 14.4467 147.245C13.9187 147.605 13.2827 147.785 12.5387 147.785ZM12.5387 146.717C12.9867 146.717 13.3867 146.585 13.7387 146.321C14.0987 146.057 14.3787 145.681 14.5787 145.193C14.7787 144.705 14.8787 144.121 14.8787 143.441C14.8787 142.761 14.7787 142.177 14.5787 141.689C14.3787 141.201 14.0987 140.829 13.7387 140.573C13.3867 140.309 12.9867 140.177 12.5387 140.177C12.0827 140.177 11.6747 140.309 11.3147 140.573C10.9547 140.829 10.6747 141.201 10.4747 141.689C10.2747 142.177 10.1747 142.761 10.1747 143.441C10.1747 144.121 10.2747 144.705 10.4747 145.193C10.6747 145.681 10.9547 146.057 11.3147 146.321C11.6747 146.585 12.0827 146.717 12.5387 146.717ZM21.2919 147.641L18.5079 144.329L21.0279 141.593H22.4799L19.4799 144.797V143.897L22.8039 147.641H21.2919ZM17.4879 147.641V139.001H18.6879V147.641H17.4879Z" fill="#0D0D0D"></path><path opacity="0.4" d="M2.26269 100.641V99.7766C2.82269 99.3446 3.35469 98.9086 3.85869 98.4686C4.36269 98.0286 4.81069 97.5926 5.20269 97.1606C5.60269 96.7206 5.91469 96.2926 6.13869 95.8766C6.36269 95.4526 6.47469 95.0486 6.47469 94.6646C6.47469 94.3926 6.42669 94.1406 6.33069 93.9086C6.23469 93.6766 6.08269 93.4886 5.87469 93.3446C5.66669 93.1926 5.38269 93.1166 5.02269 93.1166C4.67869 93.1166 4.39069 93.1926 4.15869 93.3446C3.93469 93.4966 3.76269 93.7006 3.64269 93.9566C3.53069 94.2046 3.47469 94.4806 3.47469 94.7846H2.31069C2.31869 94.2086 2.44269 93.7206 2.68269 93.3206C2.92269 92.9206 3.24669 92.6166 3.65469 92.4086C4.07069 92.2006 4.53469 92.0966 5.04669 92.0966C5.58269 92.0966 6.04669 92.1966 6.43869 92.3966C6.83069 92.5886 7.13469 92.8726 7.35069 93.2486C7.56669 93.6166 7.67469 94.0686 7.67469 94.6046C7.67469 94.9886 7.59869 95.3726 7.44669 95.7566C7.29469 96.1326 7.08669 96.5006 6.82269 96.8606C6.56669 97.2206 6.27869 97.5686 5.95869 97.9046C5.63869 98.2326 5.30669 98.5446 4.96269 98.8406C4.62669 99.1366 4.30269 99.4046 3.99069 99.6446H7.93869V100.641H2.26269ZM12.5387 100.785C11.7947 100.785 11.1547 100.605 10.6187 100.245C10.0827 99.8766 9.67072 99.3686 9.38272 98.7206C9.09472 98.0646 8.95072 97.3046 8.95072 96.4406C8.95072 95.5766 9.09472 94.8206 9.38272 94.1726C9.67072 93.5166 10.0827 93.0086 10.6187 92.6486C11.1547 92.2806 11.7947 92.0966 12.5387 92.0966C13.2827 92.0966 13.9187 92.2806 14.4467 92.6486C14.9827 93.0086 15.3907 93.5166 15.6707 94.1726C15.9587 94.8206 16.1027 95.5766 16.1027 96.4406C16.1027 97.3046 15.9587 98.0646 15.6707 98.7206C15.3907 99.3686 14.9827 99.8766 14.4467 100.245C13.9187 100.605 13.2827 100.785 12.5387 100.785ZM12.5387 99.7166C12.9867 99.7166 13.3867 99.5846 13.7387 99.3206C14.0987 99.0566 14.3787 98.6806 14.5787 98.1926C14.7787 97.7046 14.8787 97.1206 14.8787 96.4406C14.8787 95.7606 14.7787 95.1766 14.5787 94.6886C14.3787 94.2006 14.0987 93.8286 13.7387 93.5726C13.3867 93.3086 12.9867 93.1766 12.5387 93.1766C12.0827 93.1766 11.6747 93.3086 11.3147 93.5726C10.9547 93.8286 10.6747 94.2006 10.4747 94.6886C10.2747 95.1766 10.1747 95.7606 10.1747 96.4406C10.1747 97.1206 10.2747 97.7046 10.4747 98.1926C10.6747 98.6806 10.9547 99.0566 11.3147 99.3206C11.6747 99.5846 12.0827 99.7166 12.5387 99.7166ZM21.2919 100.641L18.5079 97.3286L21.0279 94.5926H22.4799L19.4799 97.7966V96.8966L22.8039 100.641H21.2919ZM17.4879 100.641V92.0006H18.6879V100.641H17.4879Z" fill="#0D0D0D"></path><path opacity="0.4" d="M4.76413 8.78463C4.14813 8.78463 3.62813 8.67262 3.20413 8.44862C2.78813 8.21662 2.45213 7.90862 2.19613 7.52462C1.94013 7.13262 1.75213 6.70062 1.63213 6.22862C1.52013 5.74862 1.46413 5.25662 1.46413 4.75262C1.46413 3.82462 1.59213 3.01262 1.84813 2.31662C2.11213 1.62062 2.48813 1.07662 2.97613 0.684624C3.46413 0.292625 4.05213 0.0966249 4.74013 0.0966249C5.29213 0.0966249 5.76013 0.204625 6.14413 0.420624C6.53613 0.628624 6.84013 0.908625 7.05613 1.26062C7.28013 1.61262 7.41613 2.00062 7.46413 2.42462H6.34813C6.27613 2.00862 6.09613 1.68862 5.80813 1.46462C5.52813 1.23262 5.16813 1.11662 4.72813 1.11662C4.33613 1.11662 3.98413 1.24062 3.67213 1.48862C3.36013 1.72862 3.11213 2.09662 2.92813 2.59262C2.75213 3.08862 2.65213 3.71662 2.62813 4.47662C2.62813 4.48462 2.62813 4.49662 2.62813 4.51262C2.62813 4.52862 2.62813 4.54462 2.62813 4.56062C2.74813 4.32062 2.92013 4.10062 3.14413 3.90062C3.36813 3.70062 3.63213 3.54462 3.93613 3.43262C4.24813 3.31262 4.58413 3.25262 4.94413 3.25262C5.41613 3.25262 5.85613 3.36462 6.26413 3.58862C6.68012 3.80462 7.01612 4.11662 7.27213 4.52462C7.52813 4.93262 7.65613 5.40862 7.65613 5.95262C7.65613 6.44062 7.53613 6.90062 7.29613 7.33262C7.06413 7.76462 6.73213 8.11662 6.30013 8.38862C5.86813 8.65262 5.35613 8.78463 4.76413 8.78463ZM4.68013 7.74062C5.02413 7.74062 5.32813 7.66862 5.59213 7.52462C5.86413 7.37262 6.07613 7.16462 6.22813 6.90062C6.38813 6.63662 6.46813 6.33662 6.46813 6.00062C6.46813 5.65662 6.38813 5.35662 6.22813 5.10062C6.07613 4.83662 5.86413 4.63262 5.59213 4.48862C5.32813 4.34462 5.02413 4.27262 4.68013 4.27262C4.33613 4.27262 4.02813 4.35262 3.75613 4.51262C3.48413 4.66462 3.26813 4.87262 3.10813 5.13662C2.94813 5.39262 2.86813 5.68462 2.86813 6.01262C2.86813 6.34862 2.94813 6.64862 3.10813 6.91262C3.26813 7.16862 3.48413 7.37262 3.75613 7.52462C4.03613 7.66862 4.34413 7.74062 4.68013 7.74062ZM12.5387 8.78463C11.7947 8.78463 11.1547 8.60463 10.6187 8.24463C10.0827 7.87662 9.67072 7.36862 9.38272 6.72062C9.09472 6.06462 8.95072 5.30462 8.95072 4.44062C8.95072 3.57662 9.09472 2.82062 9.38272 2.17262C9.67072 1.51662 10.0827 1.00862 10.6187 0.648625C11.1547 0.280625 11.7947 0.0966249 12.5387 0.0966249C13.2827 0.0966249 13.9187 0.280625 14.4467 0.648625C14.9827 1.00862 15.3907 1.51662 15.6707 2.17262C15.9587 2.82062 16.1027 3.57662 16.1027 4.44062C16.1027 5.30462 15.9587 6.06462 15.6707 6.72062C15.3907 7.36862 14.9827 7.87662 14.4467 8.24463C13.9187 8.60463 13.2827 8.78463 12.5387 8.78463ZM12.5387 7.71662C12.9867 7.71662 13.3867 7.58462 13.7387 7.32062C14.0987 7.05662 14.3787 6.68062 14.5787 6.19262C14.7787 5.70462 14.8787 5.12062 14.8787 4.44062C14.8787 3.76062 14.7787 3.17662 14.5787 2.68862C14.3787 2.20062 14.0987 1.82862 13.7387 1.57262C13.3867 1.30862 12.9867 1.17662 12.5387 1.17662C12.0827 1.17662 11.6747 1.30862 11.3147 1.57262C10.9547 1.82862 10.6747 2.20062 10.4747 2.68862C10.2747 3.17662 10.1747 3.76062 10.1747 4.44062C10.1747 5.12062 10.2747 5.70462 10.4747 6.19262C10.6747 6.68062 10.9547 7.05662 11.3147 7.32062C11.6747 7.58462 12.0827 7.71662 12.5387 7.71662ZM21.2919 8.64062L18.5079 5.32862L21.0279 2.59262H22.4799L19.4799 5.79662V4.89662L22.8039 8.64062H21.2919ZM17.4879 8.64062V0.000624657H18.6879V8.64062H17.4879Z" fill="#0D0D0D"></path><path d="M48 75.6406C48 72.8792 50.2386 70.6406 53 70.6406H77C79.7614 70.6406 82 72.8792 82 75.6406V150.641H48V75.6406Z" fill="url(#paint0_linear_12260_3002)"></path><path d="M109 95.6406C109 92.8792 111.239 90.6406 114 90.6406H138C140.761 90.6406 143 92.8792 143 95.6406V150.641H109V95.6406Z" fill="url(#paint1_linear_12260_3002)"></path><path d="M170 55.6406C170 52.8792 172.239 50.6406 175 50.6406H199C201.761 50.6406 204 52.8792 204 55.6406V150.641H170V55.6406Z" fill="url(#paint2_linear_12260_3002)"></path><path d="M231 5.64063C231 2.87921 233.239 0.640625 236 0.640625H260C262.761 0.640625 265 2.8792 265 5.64063V150.641H231V5.64063Z" fill="url(#paint3_linear_12260_3002)"></path><path d="M292 35.6406C292 32.8792 294.239 30.6406 297 30.6406H321C323.761 30.6406 326 32.8792 326 35.6406V150.641H292V35.6406Z" fill="url(#paint4_linear_12260_3002)"></path><rect x="34.375" y="150.016" width="305.25" height="0.75" rx="0.375" stroke="#EEE6FD" stroke-width="0.75"></rect><path d="M35 150.141L66 107.641L126.5 125.641L188 101.641L248.503 48.6406L309.5 83.1406L339 150.141" stroke="#EEE6FD" stroke-width="1.5" stroke-linecap="round"></path><g filter="url(#filter0_d_12260_3002)"><circle cx="65.5" cy="108.141" r="4.5" fill="white"></circle></g><g filter="url(#filter1_d_12260_3002)"><circle cx="248.5" cy="50.1406" r="4.5" fill="white"></circle></g><g filter="url(#filter2_d_12260_3002)"><circle cx="309.5" cy="84.1406" r="4.5" fill="white"></circle></g><g filter="url(#filter3_d_12260_3002)"><circle cx="187.5" cy="101.141" r="4.5" fill="white"></circle></g><g filter="url(#filter4_d_12260_3002)"><circle cx="126.5" cy="124.141" r="4.5" fill="white"></circle></g><defs><filter id="filter0_d_12260_3002" x="51" y="93.6406" width="29" height="29" filterUnits="userSpaceOnUse" color-interpolation-filters="sRGB"></filter><filter id="filter1_d_12260_3002" x="234" y="35.6406" width="29" height="29" filterUnits="userSpaceOnUse" color-interpolation-filters="sRGB"></filter><filter id="filter2_d_12260_3002" x="295" y="69.6406" width="29" height="29" filterUnits="userSpaceOnUse" color-interpolation-filters="sRGB"></filter><filter id="filter3_d_12260_3002" x="173" y="86.6406" width="29" height="29" filterUnits="userSpaceOnUse" color-interpolation-filters="sRGB"></filter><filter id="filter4_d_12260_3002" x="112" y="109.641" width="29" height="29" filterUnits="userSpaceOnUse" color-interpolation-filters="sRGB"></filter><linearGradient id="paint0_linear_12260_3002" x1="65" y1="150.641" x2="65" y2="70.6406" gradientUnits="userSpaceOnUse"><stop stop-color="#A371F6"></stop><stop offset="1" stop-color="#FFAFCA"></stop></linearGradient><linearGradient id="paint1_linear_12260_3002" x1="126" y1="150.641" x2="126" y2="90.6406" gradientUnits="userSpaceOnUse"><stop stop-color="#A371F6"></stop><stop offset="1" stop-color="#FFAFCA"></stop></linearGradient><linearGradient id="paint2_linear_12260_3002" x1="187" y1="150.641" x2="187" y2="50.6406" gradientUnits="userSpaceOnUse"><stop stop-color="#A371F6"></stop><stop offset="1" stop-color="#FFAFCA"></stop></linearGradient><linearGradient id="paint3_linear_12260_3002" x1="248" y1="150.641" x2="248" y2="0.640625" gradientUnits="userSpaceOnUse"><stop stop-color="#A371F6"></stop><stop offset="1" stop-color="#FFAFCA"></stop></linearGradient><linearGradient id="paint4_linear_12260_3002" x1="309" y1="150.641" x2="309" y2="30.6406" gradientUnits="userSpaceOnUse"><stop stop-color="#A371F6"></stop><stop offset="1" stop-color="#FFAFCA"></stop></linearGradient></defs></svg>