<svg xmlns="http://www.w3.org/2000/svg" width="45" height="94" viewBox="0 0 45 94" fill="none"><path d="M2.33656 86.458C5.19607 88.6039 9.63675 91.0598 13.0256 92.7841C14.2573 93.4108 15.271 92.6275 14.8633 91.3138C13.8409 88.0191 11.9306 82.5706 10.6508 79.3737C10.1545 78.1339 8.94229 78.145 8.53245 79.4157C8.18599 80.4899 7.82692 81.7435 7.52324 82.8625C7.24202 83.8987 6.19631 84.5444 5.12631 84.3967C4.51956 84.3129 3.85346 84.2392 3.1818 84.1942C1.70449 84.0954 1.15519 85.5714 2.33656 86.458Z" stroke="#0D0D0D" stroke-width="1.5"></path><path d="M38.6263 1C15.9789 4.64785 5.77736 21.6767 3.2773 29.2001C1.52887 34.4637 1.18992 40.2389 2.70607 45.5844C3.31081 47.7163 4.21027 49.7638 5.36093 51.6621M5.36093 51.6621C6.93829 54.2643 8.98771 56.5862 11.3971 58.4611C15.5642 61.7036 20.7799 63.5931 26.0674 63.7756C30.7398 63.9392 35.5802 62.7 39.1309 59.6936C42.6815 56.6872 44.7069 51.7572 43.5914 47.2507C42.3788 42.3496 37.7097 38.7926 32.736 37.7571C27.1764 36.5974 20.9316 37.9422 16.0883 40.7423C11.5655 43.3576 7.92577 47.1938 5.36093 51.6621ZM5.36093 51.6621C3.34602 55.1723 1.99447 59.0726 1.39929 63.0776C0.745168 67.4803 1.02842 72.0286 2.38473 76.2866C3.28249 79.1056 4.67485 81.8746 6.98533 83.7452" stroke="#0D0D0D" stroke-width="1.5" stroke-miterlimit="10" stroke-linecap="round" stroke-linejoin="round"></path></svg>