<svg xmlns="http://www.w3.org/2000/svg" width="160" height="50" viewBox="0 0 160 50" fill="none"><path d="M63.6744 45.4714H62.2139V49.9005H63.0151V48.2871H63.5188C64.5444 48.2871 65.19 47.7776 65.19 46.8972C65.2403 46.1597 64.6726 45.5161 63.9125 45.467C63.8347 45.4625 63.7523 45.4625 63.6744 45.4714ZM63.5691 47.5273H63.0151V46.2357H63.6424C64.1003 46.2357 64.3567 46.4547 64.3567 46.8659C64.3567 47.277 64.0728 47.5273 63.5691 47.5273Z" fill="#7E7E7E"></path><path d="M71.8478 45.4223L69.7782 49.8916H70.6939L71.0419 49.0961H72.8734L73.2397 49.8916H74.1554L72.0859 45.4223H71.8478ZM71.3441 48.3944L71.9531 46.9508L72.5803 48.3944H71.3441Z" fill="#7E7E7E"></path><path d="M82.6258 48.7832L82.3832 48.4078C82.2504 48.1754 82.0581 47.9743 81.8246 47.8313C82.2962 47.7017 82.6121 47.2726 82.5892 46.7944C82.5892 45.9006 81.9986 45.4536 80.9913 45.4536H79.6543V49.8827H80.4602V48.1352H80.7715C81.1103 48.0905 81.44 48.2737 81.5728 48.5821L82.0306 49.2927C82.168 49.4983 82.342 49.7397 82.4473 49.8693L82.4839 49.905H83.5278L83.3905 49.7352C83.1158 49.4358 82.8594 49.1184 82.6258 48.7832ZM80.973 47.4067H80.4602V46.2179H80.9821C81.6277 46.2179 81.7834 46.4905 81.7834 46.7944C81.7834 47.0983 81.6002 47.4067 80.973 47.4067Z" fill="#7E7E7E"></path><path d="M89.5308 45.4759H88.7295V49.905H89.5308V45.4759Z" fill="#7E7E7E"></path><path d="M96.7646 47.2369L96.5036 47.152C96.1053 47.0179 96.0183 46.848 96.0183 46.6425C96.0183 46.3698 96.2427 46.1955 96.6089 46.1955C96.9661 46.1955 97.314 46.2894 97.6162 46.4682L97.7536 46.5352V45.6682H97.6849C97.337 45.5296 96.9661 45.4581 96.5906 45.4626C95.881 45.4179 95.2628 45.9452 95.217 46.638C95.217 46.6469 95.217 46.6603 95.217 46.6693C95.217 47.2637 95.5467 47.6525 96.2427 47.9073L96.5403 48.0101C97.0806 48.1978 97.1859 48.3989 97.1859 48.6715C97.1859 49.0112 96.9432 49.2168 96.5082 49.2168C96.1007 49.2168 95.6978 49.0961 95.359 48.8771L95.2033 48.7922V49.686L95.2537 49.7218C95.6383 49.905 96.0595 49.9989 96.4899 49.9944C97.2454 50.0615 97.9139 49.5162 97.9825 48.7788C97.9871 48.7475 97.9871 48.7162 97.9871 48.6894C98.0008 47.9698 97.6162 47.5453 96.7646 47.2369Z" fill="#7E7E7E"></path><path d="M139.067 9.86469L139.346 9.10045H134.355L134.685 9.88257C135.015 10.6647 134.996 11.7329 134.996 12.953V32.4033C134.996 33.6413 134.996 34.696 134.685 35.5095L134.374 36.2916H139.346L139.067 35.5273C138.737 34.6111 138.737 33.4044 138.737 31.9787V13.3418C138.774 11.934 138.774 10.7451 139.067 9.86469Z" fill="#7E7E7E"></path><path d="M158.942 33.2882C157.77 33.7173 156.529 33.9363 155.279 33.9318H148.164V21.7619H156.822L157.624 19.5273H148.164V11.4066H154.336C155.449 11.3574 156.557 11.5407 157.587 11.9519L158.768 12.4256L158.109 9.10046H143.728L144.039 9.86471C144.369 10.7317 144.369 11.934 144.369 13.3463V32.0011C144.369 34.1553 144.369 34.6156 144.039 35.5318L143.76 36.2961H159.112L160 32.886L158.942 33.2882Z" fill="#7E7E7E"></path><path d="M71.9714 12.6669V31.9832C71.9714 34.1374 71.9714 34.6156 71.6738 35.5318L71.4128 36.2961H80.6616C88.9031 36.2961 93.5275 29.1854 93.5275 22.3117C93.5275 15.0312 88.2942 9.10493 79.984 9.10493H71.3762L71.6875 9.90046C72.0034 10.5932 71.9851 11.5809 71.9714 12.6669ZM75.5885 11.3932H79.3979C85.3089 11.3932 89.6586 16.5865 89.6586 23.7508C89.6586 28.8234 87.0167 33.9497 80.5288 33.9497H75.5839L75.5885 11.3932Z" fill="#7E7E7E"></path><path d="M64.8237 9.10045L65.1534 9.89598C65.3823 10.6513 65.483 11.4334 65.451 12.22V26.3564C65.451 30.7854 62.1818 33.8424 58.2717 33.8424C54.4302 33.8424 51.4037 30.8569 51.4037 26.3564V12.9217C51.3396 11.9027 51.4312 10.8748 51.683 9.88257L51.944 9.11832H47.1914L47.4524 9.88257C47.7317 10.6468 47.7134 11.6971 47.7134 12.9217V26.4994C47.7134 32.7117 52.1821 36.9039 57.7131 36.9039C63.2441 36.9039 67.6395 32.6402 67.6395 26.4279V12.2245C67.6121 11.4334 67.6991 10.6468 67.9005 9.88257L68.1798 9.10045H64.8237Z" fill="#7E7E7E"></path><path d="M35.7503 8.60865H34.949C34.949 8.60865 27.6232 25.9227 25.3705 31.7595C24.6975 33.4087 23.7451 34.9327 22.5547 36.2735H26.2405C26.2405 36.2735 28.2047 31.335 30.2376 26.2087H38.937C40.9195 31.335 42.8471 36.2735 42.8471 36.2735H48.0439C46.739 34.9998 45.7134 33.4802 45.0357 31.8042L35.7503 8.60865ZM31.0572 24.1394C32.7421 19.8981 34.2897 16.0098 34.6239 15.2634C34.9353 16.0277 36.4554 19.8981 38.1037 24.1394H31.0572Z" fill="#7E7E7E"></path><path d="M127.959 33.9273H122.497V13.2435C122.442 12.153 122.524 11.058 122.739 9.98538C122.808 9.7485 123.037 9.09152 123.037 9.09152H118.064L118.362 9.85577C118.673 10.7228 118.673 11.925 118.673 13.3373V31.9743C118.673 34.1463 118.673 34.6067 118.362 35.5229L118.083 36.2871H131.819L132.707 32.8905L131.663 33.2793C130.486 33.7352 129.227 33.9542 127.959 33.9273Z" fill="#7E7E7E"></path><path d="M13.9648 34.3028C9.07941 34.3028 4.31306 29.3865 4.31306 21.3865C4.31306 15.3932 7.99886 10.9329 13.9648 10.9329C17.5453 10.9329 20.3749 13.3239 22.3299 17.096L21.9637 10.9507C19.6011 9.38202 16.8035 8.55521 13.9465 8.57308C6.31392 8.57308 0 15.277 0 23.1876C0 30.8748 6.22693 36.6625 13.9465 36.6625C16.8264 36.6491 19.6194 35.6704 21.8538 33.8961L22.6001 29.2614C20.1002 32.5553 18.2412 34.3028 13.9648 34.3028Z" fill="#7E7E7E"></path><path d="M114.063 31.8268L104.777 8.62671H103.962L94.3975 31.7776C93.9533 33.0022 93.2986 34.1419 92.4653 35.1564L91.577 36.3095H95.2628C95.2628 36.3095 97.2271 31.3709 99.2462 26.2446H107.946C109.946 31.3709 111.856 36.3095 111.856 36.3095H117.089L115.908 34.9687C115.107 34.0346 114.484 32.9709 114.063 31.8268ZM100.116 24.1396C101.801 19.8983 103.367 16.01 103.665 15.2636C103.976 16.0279 105.496 19.8983 107.144 24.1396H100.116Z" fill="#7E7E7E"></path><path d="M134.758 5.77085C138.338 6.09264 140.966 3.53621 140.636 0.0322923C137.033 -0.320781 134.41 2.26247 134.758 5.77085Z" fill="#7E7E7E"></path></svg>