<svg xmlns="http://www.w3.org/2000/svg" width="152" height="66" viewBox="0 0 152 66" fill="none"><path d="M19.1085 28.5704C21.3734 28.5704 23.0171 30.3616 23.0171 32.557C23.0171 34.8235 21.3006 36.5436 19.1085 36.5436H2.82285V40.3087C2.82285 41.1354 2.12588 41.859 1.31034 41.859C0.677576 41.859 0 41.1165 0 40.3087V30.1208C0 29.2941 0.704459 28.5704 1.52 28.5704H19.1085ZM2.82285 31.4496V33.6644H19.1085C19.7741 33.6644 20.4114 33.3157 20.4114 32.557C20.4114 31.7888 19.7512 31.4496 19.1085 31.4496H2.82285Z" fill="#868686"></path><path d="M27.1425 40.53C26.3451 39.7166 26.0568 38.7641 26.0568 37.6508V29.8991C26.0568 29.0724 26.7613 28.3488 27.5768 28.3488C28.4029 28.3488 29.0968 29.0836 29.0968 29.8991V37.6508C29.0968 38.419 29.757 38.7582 30.3997 38.7582H47.7711C48.5971 38.7582 49.2911 39.4929 49.2911 40.3085C49.2911 41.1352 48.5866 41.8588 47.7711 41.8588H30.1825C28.8272 41.7998 28.0222 41.4271 27.1425 40.53Z" fill="#868686"></path><path d="M54.7203 41.1946C54.1612 41.7999 52.8864 41.5388 52.5488 41.1946C52.1278 40.7651 51.8563 39.6861 52.3317 39.2013L59.4974 29.4563C60.3337 28.6033 61.2854 27.906 62.5374 27.906C63.7893 27.906 64.7411 28.6033 65.5774 29.4563L72.7431 39.2013C72.9578 39.4203 73.1774 40.0025 73.1774 40.3087C73.1774 40.7516 73.127 41.0244 72.7431 41.416C72.5259 41.6375 72.0917 41.859 71.6574 41.859C71.2231 41.859 70.7888 41.6375 70.5717 41.1946L63.6231 31.8925C62.8006 31.0537 62.5491 30.7732 61.6688 31.6711L54.7203 41.1946ZM60.8003 38.5368C60.8003 37.4522 61.4982 36.765 62.5374 36.765C63.6203 36.765 64.2745 37.497 64.2745 38.5368C64.2745 39.6215 63.5766 40.3087 62.5374 40.3087C61.5223 40.3087 60.8003 39.5526 60.8003 38.5368Z" fill="#868686"></path><path d="M152 29.48C152 30.8 151.102 31.4497 150.48 31.4497H144.834C142.973 31.4497 141.794 33.2325 141.794 34.9934V40.0873C141.794 40.914 141.09 41.6376 140.274 41.6376C139.448 41.6376 138.754 40.9029 138.754 40.0873V34.9934C138.754 33.674 139.04 32.4176 139.623 31.2283H130.286C129.46 31.2283 128.766 30.4935 128.766 29.6779C128.766 28.8512 129.47 28.1276 130.286 28.1276H150.253C151.126 28.1276 152 28.6 152 29.48Z" fill="#868686"></path><path d="M124.423 38.7584H108.137C106.359 38.7584 105.961 37.6465 104.88 36.5436C104.228 37.208 103.577 38.0939 102.925 38.7584C104.217 40.0759 105.002 41.6376 107.051 41.6376H124.205C125.032 41.6376 125.725 40.9028 125.725 40.0872C125.725 39.2921 125.189 38.7584 124.423 38.7584Z" fill="#868686"></path><path d="M109.005 31.4496H124.423C125.249 31.4496 125.943 30.7149 125.943 29.8993C125.943 29.0726 125.238 28.349 124.423 28.349H110.96C110.308 29.4564 109.657 30.5637 109.005 31.4496Z" fill="#868686"></path><path d="M108.571 36.5436H123.337C124.163 36.5436 124.857 35.8088 124.857 34.9933C124.857 34.1666 124.152 33.4429 123.337 33.4429H108.571C107.745 33.4429 107.051 34.1777 107.051 34.9933C107.051 35.8958 107.726 36.5436 108.571 36.5436Z" fill="#868686"></path><path d="M94.0229 28.5704H81.6458C78.4586 28.5704 76.2173 32.3327 76.2173 35.2147V40.3086C76.2173 41.1353 76.9217 41.859 77.7373 41.859C78.5633 41.859 79.2572 41.1242 79.2572 40.3086V35.2147C79.2572 33.2223 80.7487 31.671 82.7315 31.671H93.3715C95.3184 31.671 96.8458 33.2461 96.8458 35.2147C97.7143 34.3288 98.3658 33.4429 99.2344 32.5569C98.5642 30.5063 96.237 28.5704 94.0229 28.5704Z" fill="#868686"></path><path d="M50.1602 66C45.6002 66 42.3431 64.6711 40.3888 62.0134C37.7831 58.2483 38.4345 52.2685 42.5602 45.1812C42.9945 44.5168 43.646 44.2953 44.2974 44.7383C44.9488 45.1812 45.166 45.8456 44.7317 46.5101C41.2574 52.7114 40.3888 57.5839 42.5602 60.4631C44.7317 63.5638 50.5945 64.2282 58.1945 62.2349C66.4459 60.0201 76.0002 55.1477 85.1202 48.2819C103.36 34.7718 114.652 17.7181 109.657 10.6309C107.486 7.53024 101.623 6.86581 94.023 8.85909C85.7716 11.0739 76.2173 15.9463 67.0973 22.8121C66.4459 23.2551 65.7945 23.0336 65.3602 22.5906C64.9259 21.9262 65.1431 21.2618 65.5773 20.8188C74.9145 13.953 84.6859 8.85909 93.3716 6.64433C102.274 4.20809 108.789 5.31547 111.829 9.30205C117.474 17.7181 106.4 35.6577 86.423 50.4967C77.0859 57.3624 67.0973 62.4564 58.6288 64.6711C55.5888 65.5571 52.5488 66 50.1602 66Z" fill="#868686"></path><path d="M50.1602 19.49C50.1602 23.0336 47.3374 25.9128 43.8631 25.9128C40.3888 25.9128 37.566 23.0336 37.566 19.49C37.566 15.9464 40.3888 13.0672 43.8631 13.0672C47.3374 13.0672 50.1602 15.9464 50.1602 19.49Z" fill="#868686"></path><path d="M56.4566 15.0603C57.6559 15.0603 58.6281 14.0687 58.6281 12.8455C58.6281 11.6224 57.6559 10.6308 56.4566 10.6308C55.2574 10.6308 54.2852 11.6224 54.2852 12.8455C54.2852 14.0687 55.2574 15.0603 56.4566 15.0603Z" fill="#868686"></path><path d="M52.7656 3.32215C52.7656 5.09396 51.2456 6.64429 49.5085 6.64429C47.7713 6.64429 46.2513 5.09396 46.2513 3.32215C46.2513 1.55033 47.7713 0 49.5085 0C51.4627 0 52.7656 1.55033 52.7656 3.32215Z" fill="#868686"></path></svg>