<svg xmlns="http://www.w3.org/2000/svg" width="168" height="30" viewBox="0 0 168 30" fill="none"><path d="M24.3702 3.04713L20.7863 0.983741L17.1144 7.31366V0H12.978V11.4267L3.05624 5.70515L0.986683 9.27567L7.33553 12.9393H0V17.0634H11.4609L5.72221 26.9529L9.3034 29.019L12.978 22.6863V30H17.1144V18.576L27.0335 24.2976L29.1058 20.7243L22.7542 17.0634H30.0897V12.9393H18.6315L24.3702 3.04713Z" fill="#7E7E7E"></path><path d="M43.6669 4.69675L36.4276 24.8292H40.957L42.7022 19.6529H50.3841L52.1211 24.8292H56.6505L49.4386 4.69675H43.6669ZM43.9692 15.8851L46.55 8.22616L49.1198 15.8851H43.9692Z" fill="#7E7E7E"></path><path d="M70.8351 16.3866C71.8932 15.8796 72.7095 15.1589 73.2867 14.23C73.8638 13.3011 74.1524 12.194 74.1524 10.9088C74.1524 9.62368 73.8638 8.51662 73.2867 7.58769C72.7095 6.65875 71.896 5.94355 70.8488 5.44483C69.8017 4.94885 68.5676 4.69675 67.1439 4.69675H58.0549V24.8292H62.2105V17.0058H64.7556L70.3541 24.8292H75.4304L69.6587 16.825C70.0683 16.7126 70.4613 16.5647 70.8351 16.3866ZM62.2078 8.58239H67.111C67.7074 8.58239 68.2158 8.6783 68.6391 8.87011C69.0596 9.06193 69.3839 9.33047 69.6038 9.67574C69.8236 10.021 69.9363 10.4348 69.9363 10.9116C69.9363 11.3884 69.8236 11.8076 69.6038 12.1611C69.3839 12.5174 69.0623 12.7859 68.6391 12.9668C68.2158 13.1503 67.7074 13.2408 67.111 13.2408H62.2078V8.58239Z" fill="#7E7E7E"></path><path d="M75.002 8.57968H81.1474V24.8292H85.303V8.57968H91.4183V4.69678H75.002V8.57968Z" fill="#7E7E7E"></path><path d="M98.0091 4.69678H93.8535V24.8292H98.0091V4.69678Z" fill="#7E7E7E"></path><path d="M113.323 16.5181V12.6352H104.811V8.57965H113.323V4.69675H100.658V24.8292H104.811V16.5181H113.323Z" fill="#7E7E7E"></path><path d="M119.933 4.69675L112.694 24.8292H117.223L118.968 19.6529H126.65L128.387 24.8292H132.916L125.705 4.69675H119.933ZM120.238 15.8851L122.819 8.22616L125.388 15.8851H120.238Z" fill="#7E7E7E"></path><path d="M139.491 8.77969C140.241 8.33851 141.134 8.1193 142.173 8.1193C142.866 8.1193 143.484 8.24535 144.034 8.49197C144.581 8.74133 145.043 9.11674 145.419 9.61546C145.796 10.1142 146.049 10.728 146.183 11.4569H150.482C150.27 9.884 149.792 8.56321 149.053 7.48904C148.311 6.41488 147.354 5.60651 146.181 5.05846C145.007 4.51316 143.671 4.23914 142.171 4.23914C140.266 4.23914 138.617 4.63099 137.223 5.41743C135.83 6.20388 134.747 7.38765 133.978 8.96877C133.208 10.5499 132.823 12.4927 132.823 14.7917C132.823 17.0935 133.211 19.0309 133.991 20.601C134.772 22.1739 135.855 23.3467 137.251 24.125H137.254C138.647 24.9032 140.26 25.2896 142.085 25.2896C143.625 25.2896 144.98 24.9854 146.153 24.3825C147.327 23.7797 148.28 22.9165 149.009 21.793C149.74 20.6695 150.221 19.335 150.452 17.7813H146.153C146.054 18.5486 145.826 19.2008 145.46 19.7379C145.095 20.2749 144.63 20.686 144.062 20.9737C143.493 21.2614 142.836 21.4039 142.085 21.4039C141.104 21.4039 140.244 21.1792 139.502 20.7298C138.76 20.2804 138.18 19.5597 137.757 18.5733C137.333 17.5868 137.122 16.3318 137.122 14.7616C137.122 13.1915 137.328 11.9118 137.743 10.9225C138.158 9.93333 138.741 9.22087 139.491 8.77969Z" fill="#7E7E7E"></path><path d="M168 4.69678H151.586V8.57968H157.729V24.8292H161.884V8.57968H168V4.69678Z" fill="#7E7E7E"></path></svg>