<svg xmlns="http://www.w3.org/2000/svg" width="174" height="22" viewBox="0 0 174 22" fill="none"><path d="M57.9385 21.5138C56.6335 9.10755 52.3218 0 47.2027 0C42.0837 0 37.7719 9.10755 36.4669 21.5138H29.9593C27.5164 14.1169 21.7291 8.91308 14.9814 8.91308C8.23368 8.91308 2.44644 14.1169 0 21.5138H19.1261C20.9078 11.5492 25.9747 4.35751 31.9499 4.35751C37.925 4.35751 42.9919 11.5492 44.7737 21.5174H57.9385V21.5138Z" fill="#868686"></path><path d="M71.1034 21.521V4.3539H78.9821L84.7519 15.9355H84.7972L90.4731 4.3539H98.4666V21.521H92.6968V10.8037H92.6515L87.4628 21.521H82.295L76.9184 10.8289H76.8732V21.521H71.1034Z" fill="#868686"></path><path d="M99.625 21.5211L107.921 4.354H115.01L123.073 21.5211H116.747L115.473 18.5465H107.225L105.973 21.5211H99.625ZM108.384 15.0209H114.314L111.394 8.21094H111.349L108.384 15.0209Z" fill="#868686"></path><path d="M124.253 21.5211V4.354H130.346V21.5211H124.253Z" fill="#868686"></path><path d="M146.035 19.0255L145.061 17.3725C144.365 16.3425 143.37 15.8384 142.211 15.8384H138.783V21.5211H132.665V4.354H146.658C151.106 4.354 153.677 6.34549 153.677 9.79548C153.677 12.3848 151.892 14.1818 148.857 14.7832V14.8084C149.414 14.9993 149.922 15.5035 150.316 16.1049L151.45 17.8803C151.774 18.3592 152.191 18.6473 152.863 18.6473C153.256 18.6473 153.813 18.4565 154.091 18.1216L155.066 20.664C154.161 21.4563 152.331 22.0073 150.827 22.0073C148.283 22.0001 147.006 20.466 146.035 19.0255ZM138.783 12.3128H144.782C146.519 12.3128 147.539 11.5205 147.539 10.1772C147.539 8.85916 146.519 8.06689 144.803 8.06689H138.783V12.3128Z" fill="#868686"></path><path d="M156.228 21.521V4.3539H173.767V8.23965H162.158V11.117H172.838V14.4482H162.158V17.6353H174V21.521H156.228Z" fill="#868686"></path></svg>