<svg xmlns="http://www.w3.org/2000/svg" width="132" height="30" viewBox="0 0 132 30" fill="none"><path d="M11.603 25.9453H0V29.6401H11.603V25.9453Z" fill="#868686"></path><path d="M19.1854 8.29146C17.9001 7.57015 16.4329 7.21023 14.7797 7.21023C13.3904 7.21023 12.105 7.46438 10.925 7.97121C9.77089 8.47804 8.81443 9.19935 8.05416 10.1337V0H3.57049V18.6793H0V22.374H11.603V18.6793H8.05416V17.3028C8.05416 15.3269 8.53889 13.8181 9.50977 12.7766C10.5066 11.7085 11.8439 11.1738 13.5217 11.1738C15.1995 11.1738 16.5238 11.7085 17.4947 12.7766C18.4656 13.8181 18.9503 15.3269 18.9503 17.3028V29.6386H23.395V16.6211C23.395 14.6188 23.0142 12.9102 22.2539 11.4941C21.5182 10.0793 20.4953 9.01131 19.1854 8.29146Z" fill="#868686"></path><path d="M45.3561 10.7742C44.5958 9.75907 43.573 8.91876 42.2876 8.25033C41.0296 7.55546 39.5481 7.20876 37.8429 7.20876C35.9545 7.20876 34.2248 7.68914 32.6509 8.64992C31.1044 9.58425 29.871 10.9064 28.9534 12.615C28.0619 14.3235 27.6161 16.2862 27.6161 18.503C27.6161 20.7198 28.0619 22.709 28.9534 24.4704C29.871 26.2054 31.1029 27.5672 32.6509 28.5559C34.1974 29.5167 35.9026 29.9985 37.7635 29.9985C39.4413 29.9985 40.9359 29.6518 42.2472 28.957C43.5586 28.2621 44.5944 27.3953 45.3546 26.3538V29.6386H49.8772V7.57015H45.3561V10.7742ZM44.4126 22.59C43.8096 23.7109 43.0104 24.5659 42.0135 25.1535C41.0167 25.7412 39.9419 26.035 38.7878 26.035C37.6597 26.035 36.5849 25.7412 35.5621 25.1535C34.5652 24.5394 33.753 23.658 33.1241 22.5107C32.521 21.3618 32.2195 20.0279 32.2195 18.506C32.2195 16.984 32.521 15.675 33.1241 14.5806C33.753 13.4597 34.5667 12.6179 35.5621 12.0567C36.5589 11.4691 37.6337 11.1753 38.7878 11.1753C39.9419 11.1753 41.0167 11.4691 42.0135 12.0567C43.0104 12.6443 43.8096 13.4979 44.4126 14.6202C45.0416 15.7411 45.3561 17.0633 45.3561 18.5853C45.3561 20.1058 45.0416 21.4412 44.4126 22.59Z" fill="#868686"></path><path d="M60.9999 2.08315H56.4772V7.57015H53.9209V11.2957H56.4772V23.5111C56.4772 25.6736 57.0154 27.2367 58.0901 28.1974C59.1649 29.1582 60.7128 29.6401 62.731 29.6401H66.2698V25.8352H63.5173C62.5997 25.8352 61.9433 25.6618 61.551 25.3151C61.1831 24.942 60.9999 24.3411 60.9999 23.5126V11.2943H66.2698V7.57015H60.9999V2.08315Z" fill="#868686"></path><path d="M86.0183 8.29146C84.7329 7.57015 83.2657 7.21023 81.6139 7.21023C80.2247 7.21023 78.9393 7.46438 77.7593 7.97121C76.6052 8.47804 75.6487 9.19935 74.887 10.1337V0H70.4033V29.6386H74.887V17.3028C74.887 15.3269 75.3732 13.8181 76.3426 12.7766C77.3394 11.7085 78.6753 11.1738 80.3545 11.1738C82.0323 11.1738 83.3566 11.7085 84.3275 12.7766C85.297 13.8181 85.7831 15.3269 85.7831 17.3028V29.6386H90.2278V16.6211C90.2278 14.6188 89.847 12.9102 89.0867 11.4941C88.3524 10.0793 87.3296 9.01131 86.0183 8.29146Z" fill="#868686"></path><path d="M111.167 8.61172C109.489 7.67739 107.614 7.21023 105.542 7.21023C103.471 7.21023 101.595 7.67739 99.9175 8.61172C98.2397 9.54605 96.9154 10.8814 95.946 12.6164C94.9765 14.3514 94.4904 16.342 94.4904 18.5838C94.4904 20.8535 94.9621 22.8559 95.907 24.5923C96.8505 26.3009 98.1488 27.6363 99.8007 28.597C101.452 29.5314 103.3 29.9985 105.346 29.9985C107.418 29.9985 109.306 29.5314 111.01 28.597C112.741 27.6363 114.104 26.2876 115.1 24.5512C116.097 22.8162 116.594 20.8256 116.594 18.5838C116.594 16.3405 116.11 14.3514 115.139 12.6164C114.169 10.8814 112.845 9.54605 111.167 8.61172ZM111.049 22.6693C110.42 23.7902 109.593 24.632 108.572 25.1932C107.575 25.7544 106.5 26.035 105.346 26.035C103.537 26.035 102.03 25.3944 100.823 24.1119C99.6434 22.803 99.0534 20.9608 99.0534 18.5853C99.0534 16.9825 99.3419 15.6354 99.9189 14.5394C100.496 13.4185 101.269 12.5768 102.24 12.0156C103.237 11.4544 104.312 11.1738 105.466 11.1738C106.618 11.1738 107.695 11.4544 108.69 12.0156C109.687 12.5768 110.486 13.4171 111.089 14.5394C111.692 15.6339 111.994 16.9825 111.994 18.5853C111.994 20.188 111.678 21.5484 111.049 22.6693Z" fill="#868686"></path><path d="M128.106 8.171C127.032 8.78507 126.166 9.6533 125.511 10.7742V7.57015H121.027V29.6386H125.511V18.0226C125.511 15.7793 125.957 14.2045 126.848 13.2966C127.766 12.3887 129.103 11.9348 130.86 11.9348H132V7.21023C130.505 7.21023 129.209 7.53048 128.106 8.171Z" fill="#868686"></path></svg>