<svg xmlns="http://www.w3.org/2000/svg" width="70" height="20" viewBox="0 0 70 20" fill="none"><path d="M18.2031 0H21.4232V19.9988H18.2031V0Z" fill="#17313B"></path><path d="M32.617 13.667C32.617 16.7654 30.097 17.0471 29.2569 17.0471C27.2969 17.0471 27.0169 15.2162 27.0169 14.2304V6.48438H23.7969V14.0895C23.7969 15.9204 24.3569 17.6105 25.4769 18.5963C26.4569 19.5822 27.7169 20.0047 29.2569 20.0047C30.377 20.0047 31.777 19.723 32.617 18.878V20.0047H35.837V6.48438H32.617V13.667Z" fill="#17313B"></path><path d="M42.1469 1.54688H38.9269V6.47615H36.5469V9.57456H38.9269V19.9965H42.1469V9.57456H44.527V6.47615H42.1469V1.54688Z" fill="#17313B"></path><path d="M54.5982 15.913C53.8982 16.4764 52.9182 16.8989 51.9382 16.8989C49.6982 16.8989 48.1582 15.2088 48.1582 12.9555C48.1582 10.7021 49.6982 9.15288 51.9382 9.15288C52.9182 9.15288 53.8982 9.43455 54.5982 10.1387L55.0183 10.5612L57.2583 8.44869L56.6983 8.02618C55.4383 6.89949 53.7582 6.19531 51.9382 6.19531C48.0182 6.19531 45.0781 9.15288 45.0781 13.0963C45.0781 17.0397 48.0182 19.9973 51.9382 19.9973C53.7582 19.9973 55.4383 19.2931 56.6983 18.1664L57.2583 17.7439L55.0183 15.4905L54.5982 15.913Z" fill="#17313B"></path><path d="M68.597 7.60517C67.617 6.61932 66.637 6.19681 65.097 6.19681C63.9769 6.19681 62.8569 6.47848 62.0169 7.3235V0H58.7969V19.9988H62.0169V12.5345C62.0169 9.43605 64.1169 9.15437 64.957 9.15437C66.917 9.15437 66.777 10.9852 66.777 11.9711V19.858H69.997V12.1119C69.997 10.2811 69.577 8.59103 68.597 7.60517Z" fill="#17313B"></path><path d="M51.8025 15.3505C53.0397 15.3505 54.0426 14.3416 54.0426 13.0971C54.0426 11.8526 53.0397 10.8438 51.8025 10.8438C50.5654 10.8438 49.5625 11.8526 49.5625 13.0971C49.5625 14.3416 50.5654 15.3505 51.8025 15.3505Z" fill="#EF4335"></path><path d="M13.7202 15.0719C12.6002 16.1986 10.9201 16.9027 9.10012 16.9027C5.60007 16.9027 3.08004 14.086 3.08004 10.2834C3.08004 6.48084 5.60007 3.66411 9.24012 3.66411C10.9201 3.66411 12.6002 4.36829 13.8602 5.63582L14.2802 6.05833L16.3802 3.94579L15.9602 3.52328C14.1402 1.6924 11.7602 0.706545 9.24012 0.706545C3.92005 0.565709 0 4.79081 0 10.2834C0 15.7761 3.92005 20.0011 9.10012 20.0011C11.6201 20.0011 14.1402 19.0153 15.8202 17.1844L16.2402 16.7619L14.1402 14.6494L13.7202 15.0719Z" fill="#17313B"></path></svg>