<svg xmlns="http://www.w3.org/2000/svg" width="560" height="657" viewBox="0 0 560 657" fill="none"><path data-figma-bg-blur-radius="70" d="M320.117 640.62C282.948 662.119 237.123 662.119 199.954 640.62L0 524.966V131.776L199.954 16.1226C237.123 -5.37646 282.948 -5.37646 320.118 16.1226L500.082 120.214C537.164 141.663 560 181.252 560 224.09V432.652C560 475.49 537.164 515.08 500.082 536.528L320.117 640.62Z" fill="url(#paint0_linear_12260_2665)"/><defs><clipPath id="bgblur_0_12260_2665_clip_path" transform="translate(70 70)"><path d="M320.117 640.62C282.948 662.119 237.123 662.119 199.954 640.62L0 524.966V131.776L199.954 16.1226C237.123 -5.37646 282.948 -5.37646 320.118 16.1226L500.082 120.214C537.164 141.663 560 181.252 560 224.09V432.652C560 475.49 537.164 515.08 500.082 536.528L320.117 640.62Z"/></clipPath><linearGradient id="paint0_linear_12260_2665" x1="-11.4795" y1="309.371" x2="554.046" y2="133.242" gradientUnits="userSpaceOnUse"><stop stop-opacity="0"/><stop offset="1" stop-opacity="0.05"/></linearGradient></defs></svg>