<svg xmlns="http://www.w3.org/2000/svg" width="1290" height="466" viewBox="0 0 1290 466" fill="none" webcrx="" style="&#10;    background: black;&#10;"><mask id="mask0_12260_2686" style="mask-type:alpha" maskUnits="userSpaceOnUse" x="0" y="0" width="1290" height="466"><rect width="1290" height="466" rx="30" fill="#0D0D0D"/></mask><g mask="url(#mask0_12260_2686)"><path data-figma-bg-blur-radius="70" d="M585.493 -133.35C622.625 -154.791 668.375 -154.791 705.507 -133.35L847.007 -51.6423C884.131 -30.2053 907 9.40771 907 52.2768V215.723C907 258.592 884.131 298.205 847.007 319.642L705.507 401.35C668.375 422.791 622.625 422.791 585.493 401.35L443.993 319.642C406.869 298.205 384 258.592 384 215.723V52.2768C384 9.40772 406.869 -30.2054 443.993 -51.6423L585.493 -133.35Z" stroke="white" stroke-opacity="0.1"/></g><defs><clipPath id="bgblur_0_12260_2686_clip_path" transform="translate(0 0)"><path d="M585.493 -133.35C622.625 -154.791 668.375 -154.791 705.507 -133.35L847.007 -51.6423C884.131 -30.2053 907 9.40771 907 52.2768V215.723C907 258.592 884.131 298.205 847.007 319.642L705.507 401.35C668.375 422.791 622.625 422.791 585.493 401.35L443.993 319.642C406.869 298.205 384 258.592 384 215.723V52.2768C384 9.40772 406.869 -30.2054 443.993 -51.6423L585.493 -133.35Z"/></clipPath></defs></svg>