<svg xmlns="http://www.w3.org/2000/svg" viewBox="0 0 16 16"><defs><style>.cls-1,.cls-2{fill:none;stroke:currentColor;stroke-width:0.4px;}.cls-2{stroke-linecap:round;}</style></defs><g id="Layer_8" data-name="Layer 8"><path class="cls-1" d="M8.05.21a8,8,0,0,1,5.42,2.28,7.68,7.68,0,0,1,0,11,8,8,0,0,1-5.42,2.28V12a4.2,4.2,0,0,0,2.71-1.18,4,4,0,0,0,0-5.72A4.2,4.2,0,0,0,8.05,4Z" style="stroke-dasharray: 45, 47; stroke-dashoffset: 0;"></path></g><g id="Layer_7" data-name="Layer 7"><path class="cls-1" d="M2.51,8.2a5.45,5.45,0,0,0,1.67,3.73A5.38,5.38,0,0,0,6,13.13a5.62,5.62,0,0,0,2,.42v2.24a8.24,8.24,0,0,1-2.86-.58,8.08,8.08,0,0,1-2.6-1.7A7.71,7.71,0,0,1,.81,11,7.38,7.38,0,0,1,.21,8.2Z" style="stroke-dasharray: 25, 27; stroke-dashoffset: 0;"></path></g><g id="Layer_6" data-name="Layer 6"><path class="cls-1" d="M8.05,2.51A5.7,5.7,0,0,1,11.9,4.16,5.57,5.57,0,0,1,13.15,6a5.75,5.75,0,0,1,.43,2H12.12a4.13,4.13,0,0,0-1.25-2.78,4.16,4.16,0,0,0-1.39-.92,4.37,4.37,0,0,0-1.43-.32Z" style="stroke-dasharray: 18, 20; stroke-dashoffset: 0;"></path></g><g id="Layer_5" data-name="Layer 5"><path class="cls-2" d="M8.05.21V8.15" style="stroke-dasharray: 8, 10; stroke-dashoffset: 0;"></path></g><g id="Layer_4" data-name="Layer 4"><path class="cls-1" d="M12,8h3.71" style="stroke-dasharray: 4, 6; stroke-dashoffset: 0;"></path></g><g id="Layer_3" data-name="Layer 3"><path class="cls-1" d="M0.20000000000000018,8A7.8,7.8 0,1,1 15.8,8A7.8,7.8 0,1,1 0.20000000000000018,8" style="stroke-dasharray: 50, 52; stroke-dashoffset: 0;"></path></g></svg>