<svg xmlns="http://www.w3.org/2000/svg" viewBox="0 0 15.99 15.99"><defs><style>.cls-1{fill:none;stroke:currentColor;stroke-width:0.4px;}</style></defs><g id="Layer_8" data-name="Layer 8"><path class="cls-1" d="M15.66,8a.13.13,0,0,1,.13.14,7.91,7.91,0,0,1-.6,2.72,8.1,8.1,0,0,1-1.73,2.6,8,8,0,0,1-5.31,2.33A.14.14,0,0,1,8,15.65V8Z" style="stroke-dasharray: 28, 30; stroke-dashoffset: 0;"></path></g><g id="Layer_7" data-name="Layer 7"><path class="cls-1" d="M.33,8A.14.14,0,0,1,.2,7.85,7.91,7.91,0,0,1,.8,5.13,7.93,7.93,0,0,1,5.13.8,7.91,7.91,0,0,1,7.85.2.14.14,0,0,1,8,.33V8Z" style="stroke-dasharray: 28, 30; stroke-dashoffset: 0;"></path></g><g id="Layer_6" data-name="Layer 6"><path class="cls-1" d="M2.56,8A5.51,5.51,0,0,1,3,6,5.61,5.61,0,0,1,6,3a5.51,5.51,0,0,1,2-.42V8Z" style="stroke-dasharray: 20, 22; stroke-dashoffset: 0;"></path></g><g id="Layer_5" data-name="Layer 5"><path class="cls-1" d="M13.44,8A5.68,5.68,0,0,1,13,10a5.61,5.61,0,0,1-5,3.47V8Z" style="stroke-dasharray: 20, 22; stroke-dashoffset: 0;"></path></g><g id="Layer_4" data-name="Layer 4"><path class="cls-1" d="M8,4.47a3.44,3.44,0,0,1,1.22.28,3.55,3.55,0,0,1,1.21.8,3.78,3.78,0,0,1,.81,1.21A3.73,3.73,0,0,1,11.53,8H8Z" style="stroke-dasharray: 13, 15; stroke-dashoffset: 0;"></path></g><g id="Layer_3" data-name="Layer 3"><path class="cls-1" d="M8,11.53a4,4,0,0,1-1.23-.28,3.69,3.69,0,0,1-2-2A3.45,3.45,0,0,1,4.47,8H8Z" style="stroke-dasharray: 13, 15; stroke-dashoffset: 0;"></path></g></svg>