<svg xmlns="http://www.w3.org/2000/svg" viewBox="0 0 15.89 15.89"><defs><style>.cls-1{fill:none;stroke:currentColor;stroke-linecap:round;stroke-width:0.4px;}</style></defs><g id="Layer_7" data-name="Layer 7"><path class="cls-1" d="M7.85.24.24,7.85A.13.13,0,0,0,.24,8l7.61,7.62a.14.14,0,0,0,.19,0L15.65,8a.13.13,0,0,0,0-.18L8,.24A.14.14,0,0,0,7.85.24Z" style="stroke-dasharray: 44, 46; stroke-dashoffset: 0;"></path></g><g id="Layer_6" data-name="Layer 6"><path class="cls-1" d="M7.94,4.38,2.26,10.06l5.59,5.59a.14.14,0,0,0,.19,0l5.59-5.59Z" style="stroke-dasharray: 33, 35; stroke-dashoffset: 0;"></path></g><g id="Layer_5" data-name="Layer 5"><path class="cls-1" d="M5.83,2.28.24,7.87a.13.13,0,0,0,0,.18l5.59,5.59L11.51,8Z" style="stroke-dasharray: 33, 35; stroke-dashoffset: 0;"></path></g><g id="Layer_4" data-name="Layer 4"><path class="cls-1" d="M7.81.24,2.21,5.83,7.9,11.51l5.68-5.68L8,.24A.13.13,0,0,0,7.81.24Z" style="stroke-dasharray: 33, 35; stroke-dashoffset: 0;"></path></g><g id="Layer_3" data-name="Layer 3"><path class="cls-1" d="M10.06,2.28,4.38,8l5.68,5.68,5.59-5.59a.13.13,0,0,0,0-.18Z" style="stroke-dasharray: 33, 35; stroke-dashoffset: 0;"></path></g></svg>