<svg xmlns="http://www.w3.org/2000/svg" viewBox="0 0 13.85 15.87"><defs><style>.cls-1{fill:none;stroke:currentColor;stroke-width:0.4px;}</style></defs><g id="Layer_5" data-name="Layer 5"><path class="cls-1" d="M6.82.23A.2.2,0,0,1,7,.23l3.23,1.92h0L13.55,4a.22.22,0,0,1,.1.18l0,3.76h0l0,3.76a.22.22,0,0,1-.1.18l-3.28,1.84h0L7,15.64a.2.2,0,0,1-.21,0L3.59,13.72h0L.3,11.88a.22.22,0,0,1-.1-.18l0-3.76h0l0-3.76A.22.22,0,0,1,.3,4L3.58,2.15h0Z" style="stroke-dasharray: 47, 49; stroke-dashoffset: 0;"></path></g><g id="Layer_4" data-name="Layer 4"><path class="cls-1" d="M8.88,3.77a.18.18,0,0,1,.2,0l2.21,1.31h0l2.24,1.26a.2.2,0,0,1,.1.18l0,2.56h0l0,2.57a.19.19,0,0,1-.1.17L11.3,13.09h0L9.08,14.4a.18.18,0,0,1-.2,0L6.67,13.09h0L4.43,11.83a.18.18,0,0,1-.1-.17l0-2.57h0l0-2.56a.18.18,0,0,1,.1-.18L6.67,5.08h0Z" style="stroke-dasharray: 33, 35; stroke-dashoffset: 0;"></path></g><g id="Layer_3" data-name="Layer 3"><path class="cls-1" d="M10.14,6a.2.2,0,0,1,.21,0l1.58.93h0l1.6.89a.22.22,0,0,1,.1.18l0,1.83h0l0,1.83a.21.21,0,0,1-.1.18l-1.6.9h0l-1.58.93a.2.2,0,0,1-.21,0l-1.57-.93h0L7,11.82a.21.21,0,0,1-.1-.18l0-1.83h0L6.86,8A.22.22,0,0,1,7,7.79l1.6-.89h0Z" style="stroke-dasharray: 24, 26; stroke-dashoffset: 0;"></path></g></svg>