<svg xmlns="http://www.w3.org/2000/svg" viewBox="0 0 13.46 15.86"><defs><style>.cls-1{fill:none;stroke:currentColor;stroke-width:0.4px;}</style></defs><g id="Layer_7" data-name="Layer 7"><path class="cls-1" d="M6.72,11.93l-3.07-2a.42.42,0,0,1-.18-.34V2.21" style="stroke-dasharray: 12, 14; stroke-dashoffset: 0;"></path></g><g id="Layer_6" data-name="Layer 6"><path class="cls-1" d="M3.53,6l3-1.95a.43.43,0,0,1,.44,0l6.27,4.07" style="stroke-dasharray: 12, 14; stroke-dashoffset: 0;"></path></g><g id="Layer_5" data-name="Layer 5"><path class="cls-1" d="M9.91,6.05V9.67a.39.39,0,0,1-.19.33l-5.9,3.82" style="stroke-dasharray: 12, 14; stroke-dashoffset: 0;"></path></g><g id="Layer_8" data-name="Layer 8"><path class="cls-1" d="M6.63.23a.2.2,0,0,1,.21,0L10,2.14h0L13.16,4a.16.16,0,0,1,.1.17l0,3.77h0l0,3.77a.18.18,0,0,1-.1.18L10,13.72h0L6.84,15.63a.2.2,0,0,1-.21,0L3.49,13.72h0L.3,11.88a.22.22,0,0,1-.1-.18l0-3.77h0l0-3.77A.19.19,0,0,1,.3,4L3.49,2.15h0Z" style="stroke-dasharray: 46, 48; stroke-dashoffset: 0;"></path></g></svg>